<?xml version="1.0" encoding="UTF-8" standalone="no"?>
<!DOCTYPE svg PUBLIC "-//W3C//DTD SVG 1.1//EN"
 "http://www.w3.org/Graphics/SVG/1.1/DTD/svg11.dtd">
<!-- Generated by graphviz version 2.40.1 (20161225.0304)
 -->
<!-- Title: G Pages: 1 -->
<svg width="1324pt" height="131pt"
 viewBox="0.00 0.00 1323.99 131.00" xmlns="http://www.w3.org/2000/svg" xmlns:xlink="http://www.w3.org/1999/xlink">
<g id="graph0" class="graph" transform="scale(1 1) rotate(0) translate(4 127)">
<title>G</title>
<polygon fill="#ffffff" stroke="transparent" points="-4,4 -4,-127 1319.9896,-127 1319.9896,4 -4,4"/>
<!-- endometriosis -->
<g id="node1" class="node">
<title>endometriosis</title>
<ellipse fill="none" stroke="#000000" cx="475.0946" cy="-105" rx="60.3893" ry="18"/>
<text text-anchor="middle" x="475.0946" y="-101.3" font-family="Times,serif" font-size="14.00" fill="#000000">endometriosis</text>
</g>
<!-- AskReddit -->
<g id="node2" class="node">
<title>AskReddit</title>
<ellipse fill="none" stroke="#000000" cx="339.0946" cy="-18" rx="48.1917" ry="18"/>
<text text-anchor="middle" x="339.0946" y="-14.3" font-family="Times,serif" font-size="14.00" fill="#000000">AskReddit</text>
</g>
<!-- endometriosis&#45;&#45;AskReddit -->
<g id="edge1" class="edge">
<title>endometriosis&#45;&#45;AskReddit</title>
<path fill="none" stroke="#000000" d="M449.514,-88.636C424.8916,-72.8849 387.9146,-49.2305 363.6444,-33.7047"/>
<text text-anchor="middle" x="430.0946" y="-57.8" font-family="Times,serif" font-size="14.00" fill="#000000">7931</text>
</g>
<!-- AskWomen -->
<g id="node7" class="node">
<title>AskWomen</title>
<ellipse fill="none" stroke="#000000" cx="660.0946" cy="-18" rx="53.8905" ry="18"/>
<text text-anchor="middle" x="660.0946" y="-14.3" font-family="Times,serif" font-size="14.00" fill="#000000">AskWomen</text>
</g>
<!-- endometriosis&#45;&#45;AskWomen -->
<g id="edge6" class="edge">
<title>endometriosis&#45;&#45;AskWomen</title>
<path fill="none" stroke="#000000" d="M486.4719,-86.9127C494.3413,-75.8366 505.7723,-62.25 519.0946,-54 546.0512,-37.3067 580.4642,-28.3288 608.5443,-23.5135"/>
<text text-anchor="middle" x="533.0946" y="-57.8" font-family="Times,serif" font-size="14.00" fill="#000000">2186</text>
</g>
<!-- AskDocs -->
<g id="node8" class="node">
<title>AskDocs</title>
<ellipse fill="none" stroke="#000000" cx="884.0946" cy="-18" rx="42.7926" ry="18"/>
<text text-anchor="middle" x="884.0946" y="-14.3" font-family="Times,serif" font-size="14.00" fill="#000000">AskDocs</text>
</g>
<!-- endometriosis&#45;&#45;AskDocs -->
<g id="edge7" class="edge">
<title>endometriosis&#45;&#45;AskDocs</title>
<path fill="none" stroke="#000000" d="M505.8821,-89.4028C532.6261,-76.1018 569.4533,-58.4466 585.0946,-54 597.3061,-50.5284 763.1382,-31.5978 842.4287,-22.6673"/>
<text text-anchor="middle" x="595.5946" y="-57.8" font-family="Times,serif" font-size="14.00" fill="#000000">889</text>
</g>
<!-- AskMen -->
<g id="node13" class="node">
<title>AskMen</title>
<ellipse fill="none" stroke="#000000" cx="486.0946" cy="-18" rx="41.6928" ry="18"/>
<text text-anchor="middle" x="486.0946" y="-14.3" font-family="Times,serif" font-size="14.00" fill="#000000">AskMen</text>
</g>
<!-- endometriosis&#45;&#45;AskMen -->
<g id="edge14" class="edge">
<title>endometriosis&#45;&#45;AskMen</title>
<path fill="none" stroke="#000000" d="M473.8009,-86.9661C473.4219,-77.1636 473.4726,-64.8587 475.0946,-54 475.9828,-48.0535 477.6533,-41.7317 479.429,-36.0722"/>
<text text-anchor="middle" x="485.5946" y="-57.8" font-family="Times,serif" font-size="14.00" fill="#000000">207</text>
</g>
<!-- tuberculosis -->
<g id="node3" class="node">
<title>tuberculosis</title>
<ellipse fill="none" stroke="#000000" cx="61.0946" cy="-105" rx="53.0913" ry="18"/>
<text text-anchor="middle" x="61.0946" y="-101.3" font-family="Times,serif" font-size="14.00" fill="#000000">tuberculosis</text>
</g>
<!-- tuberculosis&#45;&#45;AskReddit -->
<g id="edge2" class="edge">
<title>tuberculosis&#45;&#45;AskReddit</title>
<path fill="none" stroke="#000000" d="M100.3356,-92.7195C153.9173,-75.9512 249.2993,-46.1014 301.8299,-29.662"/>
<text text-anchor="middle" x="231.0946" y="-57.8" font-family="Times,serif" font-size="14.00" fill="#000000">5019</text>
</g>
<!-- AskHistorians -->
<g id="node9" class="node">
<title>AskHistorians</title>
<ellipse fill="none" stroke="#000000" cx="61.0946" cy="-18" rx="61.1893" ry="18"/>
<text text-anchor="middle" x="61.0946" y="-14.3" font-family="Times,serif" font-size="14.00" fill="#000000">AskHistorians</text>
</g>
<!-- tuberculosis&#45;&#45;AskHistorians -->
<g id="edge8" class="edge">
<title>tuberculosis&#45;&#45;AskHistorians</title>
<path fill="none" stroke="#000000" d="M61.0946,-86.9735C61.0946,-72.0422 61.0946,-50.9283 61.0946,-36.0034"/>
<text text-anchor="middle" x="71.5946" y="-57.8" font-family="Times,serif" font-size="14.00" fill="#000000">288</text>
</g>
<!-- osteoporosis -->
<g id="node4" class="node">
<title>osteoporosis</title>
<ellipse fill="none" stroke="#000000" cx="741.0946" cy="-105" rx="54.6905" ry="18"/>
<text text-anchor="middle" x="741.0946" y="-101.3" font-family="Times,serif" font-size="14.00" fill="#000000">osteoporosis</text>
</g>
<!-- osteoporosis&#45;&#45;AskReddit -->
<g id="edge3" class="edge">
<title>osteoporosis&#45;&#45;AskReddit</title>
<path fill="none" stroke="#000000" d="M709.1147,-90.3965C695.2196,-83.9617 678.7914,-76.2329 664.0946,-69 651.0749,-62.5925 649.0261,-58.0597 635.0946,-54 549.4103,-29.0313 523.4997,-48.2377 435.0946,-36 417.4578,-33.5586 398.1388,-30.0918 381.4845,-26.8515"/>
<text text-anchor="middle" x="678.0946" y="-57.8" font-family="Times,serif" font-size="14.00" fill="#000000">3486</text>
</g>
<!-- osteoporosis&#45;&#45;AskWomen -->
<g id="edge10" class="edge">
<title>osteoporosis&#45;&#45;AskWomen</title>
<path fill="none" stroke="#000000" d="M724.703,-87.3943C710.5574,-72.2008 690.2426,-50.3812 676.1853,-35.2827"/>
<text text-anchor="middle" x="716.5946" y="-57.8" font-family="Times,serif" font-size="14.00" fill="#000000">251</text>
</g>
<!-- osteoporosis&#45;&#45;AskDocs -->
<g id="edge13" class="edge">
<title>osteoporosis&#45;&#45;AskDocs</title>
<path fill="none" stroke="#000000" d="M740.9495,-86.7805C741.8334,-75.9351 744.7635,-62.646 753.0946,-54 765.6553,-40.9644 810.2516,-30.6182 843.9498,-24.423"/>
<text text-anchor="middle" x="763.5946" y="-57.8" font-family="Times,serif" font-size="14.00" fill="#000000">211</text>
</g>
<!-- misdiagnosis -->
<g id="node5" class="node">
<title>misdiagnosis</title>
<ellipse fill="none" stroke="#000000" cx="339.0946" cy="-105" rx="57.3905" ry="18"/>
<text text-anchor="middle" x="339.0946" y="-101.3" font-family="Times,serif" font-size="14.00" fill="#000000">misdiagnosis</text>
</g>
<!-- misdiagnosis&#45;&#45;AskReddit -->
<g id="edge4" class="edge">
<title>misdiagnosis&#45;&#45;AskReddit</title>
<path fill="none" stroke="#000000" d="M339.0946,-86.9735C339.0946,-72.0422 339.0946,-50.9283 339.0946,-36.0034"/>
<text text-anchor="middle" x="353.0946" y="-57.8" font-family="Times,serif" font-size="14.00" fill="#000000">2515</text>
</g>
<!-- metamorphosis -->
<g id="node6" class="node">
<title>metamorphosis</title>
<ellipse fill="none" stroke="#000000" cx="198.0946" cy="-105" rx="65.7887" ry="18"/>
<text text-anchor="middle" x="198.0946" y="-101.3" font-family="Times,serif" font-size="14.00" fill="#000000">metamorphosis</text>
</g>
<!-- metamorphosis&#45;&#45;AskReddit -->
<g id="edge5" class="edge">
<title>metamorphosis&#45;&#45;AskReddit</title>
<path fill="none" stroke="#000000" d="M224.9475,-88.4312C250.5161,-72.6548 288.7127,-49.0867 313.7645,-33.6292"/>
<text text-anchor="middle" x="291.0946" y="-57.8" font-family="Times,serif" font-size="14.00" fill="#000000">2359</text>
</g>
<!-- thrombosis -->
<g id="node10" class="node">
<title>thrombosis</title>
<ellipse fill="none" stroke="#000000" cx="999.0946" cy="-105" rx="50.0912" ry="18"/>
<text text-anchor="middle" x="999.0946" y="-101.3" font-family="Times,serif" font-size="14.00" fill="#000000">thrombosis</text>
</g>
<!-- thrombosis&#45;&#45;AskDocs -->
<g id="edge9" class="edge">
<title>thrombosis&#45;&#45;AskDocs</title>
<path fill="none" stroke="#000000" d="M977.464,-88.636C956.7737,-72.9833 925.7667,-49.5258 905.2397,-33.9967"/>
<text text-anchor="middle" x="959.5946" y="-57.8" font-family="Times,serif" font-size="14.00" fill="#000000">269</text>
</g>
<!-- hyperhidrosis -->
<g id="node11" class="node">
<title>hyperhidrosis</title>
<ellipse fill="none" stroke="#000000" cx="872.0946" cy="-105" rx="58.4896" ry="18"/>
<text text-anchor="middle" x="872.0946" y="-101.3" font-family="Times,serif" font-size="14.00" fill="#000000">hyperhidrosis</text>
</g>
<!-- hyperhidrosis&#45;&#45;AskWomen -->
<g id="edge18" class="edge">
<title>hyperhidrosis&#45;&#45;AskWomen</title>
<path fill="none" stroke="#000000" d="M857.8203,-87.3325C847.8383,-76.1375 833.565,-62.2602 818.0946,-54 785.3355,-36.5086 744.3519,-27.4839 712.3349,-22.8451"/>
<text text-anchor="middle" x="848.5946" y="-57.8" font-family="Times,serif" font-size="14.00" fill="#000000">113</text>
</g>
<!-- hyperhidrosis&#45;&#45;AskDocs -->
<g id="edge11" class="edge">
<title>hyperhidrosis&#45;&#45;AskDocs</title>
<path fill="none" stroke="#000000" d="M874.581,-86.9735C876.6405,-72.0422 879.5527,-50.9283 881.6114,-36.0034"/>
<text text-anchor="middle" x="889.5946" y="-57.8" font-family="Times,serif" font-size="14.00" fill="#000000">230</text>
</g>
<!-- hyperhidrosis&#45;&#45;AskMen -->
<g id="edge16" class="edge">
<title>hyperhidrosis&#45;&#45;AskMen</title>
<path fill="none" stroke="#000000" d="M835.7666,-90.6329C822.0218,-84.638 806.4749,-77.1656 793.0946,-69 783.9108,-63.3954 784.0666,-58.0388 774.0946,-54 700.805,-24.317 675.4889,-46.3332 597.0946,-36 572.9974,-32.8237 546.0853,-28.4796 524.7956,-24.8548"/>
<text text-anchor="middle" x="803.5946" y="-57.8" font-family="Times,serif" font-size="14.00" fill="#000000">144</text>
</g>
<!-- mononucleosis -->
<g id="node12" class="node">
<title>mononucleosis</title>
<ellipse fill="none" stroke="#000000" cx="1131.0946" cy="-105" rx="63.8893" ry="18"/>
<text text-anchor="middle" x="1131.0946" y="-101.3" font-family="Times,serif" font-size="14.00" fill="#000000">mononucleosis</text>
</g>
<!-- mononucleosis&#45;&#45;AskDocs -->
<g id="edge12" class="edge">
<title>mononucleosis&#45;&#45;AskDocs</title>
<path fill="none" stroke="#000000" d="M1091.1352,-90.9253C1042.8016,-73.9008 962.33,-45.5566 917.2668,-29.6842"/>
<text text-anchor="middle" x="1033.5946" y="-57.8" font-family="Times,serif" font-size="14.00" fill="#000000">225</text>
</g>
<!-- adenomyosis -->
<g id="node14" class="node">
<title>adenomyosis</title>
<ellipse fill="none" stroke="#000000" cx="611.0946" cy="-105" rx="57.3905" ry="18"/>
<text text-anchor="middle" x="611.0946" y="-101.3" font-family="Times,serif" font-size="14.00" fill="#000000">adenomyosis</text>
</g>
<!-- adenomyosis&#45;&#45;AskWomen -->
<g id="edge15" class="edge">
<title>adenomyosis&#45;&#45;AskWomen</title>
<path fill="none" stroke="#000000" d="M608.6163,-86.56C608.0989,-76.4077 608.9067,-63.8984 614.0946,-54 618.3315,-45.9161 625.2747,-39.0667 632.4978,-33.583"/>
<text text-anchor="middle" x="624.5946" y="-57.8" font-family="Times,serif" font-size="14.00" fill="#000000">150</text>
</g>
<!-- trichinosis -->
<g id="node15" class="node">
<title>trichinosis</title>
<ellipse fill="none" stroke="#000000" cx="1260.0946" cy="-105" rx="47.3916" ry="18"/>
<text text-anchor="middle" x="1260.0946" y="-101.3" font-family="Times,serif" font-size="14.00" fill="#000000">trichinosis</text>
</g>
<!-- AskCulinary -->
<g id="node16" class="node">
<title>AskCulinary</title>
<ellipse fill="none" stroke="#000000" cx="1260.0946" cy="-18" rx="55.7903" ry="18"/>
<text text-anchor="middle" x="1260.0946" y="-14.3" font-family="Times,serif" font-size="14.00" fill="#000000">AskCulinary</text>
</g>
<!-- trichinosis&#45;&#45;AskCulinary -->
<g id="edge17" class="edge">
<title>trichinosis&#45;&#45;AskCulinary</title>
<path fill="none" stroke="#000000" d="M1260.0946,-86.9735C1260.0946,-72.0422 1260.0946,-50.9283 1260.0946,-36.0034"/>
<text text-anchor="middle" x="1270.5946" y="-57.8" font-family="Times,serif" font-size="14.00" fill="#000000">134</text>
</g>
</g>
</svg>
